<?xml version="1.0" encoding="utf-8"?>
<!-- Generator: Adobe Illustrator 24.3.0, SVG Export Plug-In . SVG Version: 6.00 Build 0)  -->
<svg version="1.1" id="Layer_1" xmlns="http://www.w3.org/2000/svg" xmlns:xlink="http://www.w3.org/1999/xlink" x="0px" y="0px"
	 viewBox="0 0 500 333.3" style="enable-background:new 0 0 500 333.3;" xml:space="preserve">
<style type="text/css">
	.st0{fill:#003E27;}
	.st1{fill:#3B443F;}
</style>
<g>
	<path class="st0" d="M32.5,64.3h23C70.2,64.3,81,69,81,82.9c0,7.1-3.6,14-10,16.4v0.5c7.9,1.9,13.9,7.7,13.9,18
		c0,15.1-11.8,22.2-27.6,22.2H32.5V64.3z M54.3,95.4c10,0,14.3-4.1,14.3-10.7c0-7.3-4.7-10.1-14-10.1h-9.4v20.8H54.3z M56,129.3
		c10.6,0,16.4-4,16.4-12.5c0-7.9-5.7-11.4-16.4-11.4H45.2v23.9H56z"/>
	<path class="st0" d="M91.7,64.3H135v11.3h-30.5v19.3h25.9v11.3h-25.9v22.4h31.6v11.3H91.7V64.3z"/>
	<path class="st0" d="M134.8,64.3h13.5l10.2,38c2.4,8.6,3.9,16,6.3,24.6h0.5c2.4-8.6,4.1-16,6.3-24.6l10-38h13l-22.2,75.5h-15.1
		L134.8,64.3z"/>
	<path class="st0" d="M196.2,64.3h43.3v11.3H209v19.3h25.9v11.3H209v22.4h31.6v11.3h-44.4V64.3L196.2,64.3z"/>
	<path class="st0" d="M248.9,64.3h24.2c14.9,0,26.5,5.6,26.5,22.4c0,16.2-11.5,23.6-26.5,23.6h-11.5v29.5h-12.8L248.9,64.3
		L248.9,64.3z M271.9,99.5c9.8,0,15.2-4.3,15.2-12.9s-5.4-11.7-15.2-11.7h-10.1v24.6H271.9z M270.8,106.7l9.2-8l22.4,41.1h-14.3
		L270.8,106.7z"/>
	<path class="st0" d="M321,64.3h14.9l23.4,75.5h-13.5l-10.9-40.2c-2.3-8-4.4-16.6-6.5-24.9H328c-2,8.4-4.1,17-6.4,24.9l-11,40.2h-13
		L321,64.3z M311.4,108.8h33.9v10.5h-33.9V108.8z"/>
	<path class="st0" d="M357,102.3c0-24.7,14.9-39.5,34.1-39.5c10.2,0,17.2,4.7,21.8,9.6L406,81c-3.6-3.7-7.8-6.6-14.5-6.6
		c-12.8,0-21.3,10.4-21.3,27.3c0,17.2,7.7,27.7,22.1,27.7c4,0,7.9-1.2,10.2-3.4v-16.3h-13.6V98.9h25v33.4c-4.8,5.1-13.1,8.9-23,8.9
		C371.4,141.2,357,127.3,357,102.3z"/>
	<path class="st0" d="M423.3,64.3h43.3v11.3h-30.5v19.3H462v11.3h-25.9v22.4h31.6v11.3h-44.4V64.3z"/>
	<path class="st1" d="M32.5,268.2V155.7H55c10.8,0,19.3,1.1,25.5,3.4c6.7,2.2,12.8,5.9,18.2,11.1c11,10.6,16.6,24.5,16.6,41.7
		c0,17.3-5.7,31.3-17.3,42c-5.7,5.4-11.8,9-18.2,11.1c-5.9,2.1-14.3,3.1-25.2,3.1L32.5,268.2L32.5,268.2z M48.6,252.3h7.3
		c7.3,0,13.3-0.8,18.1-2.4c4.8-1.7,9.2-4.4,13-8.1C95,234.1,99,224.2,99,212c0-12.3-3.9-22.3-11.8-30c-7.1-6.8-17.5-10.3-31.3-10.3
		h-7.3C48.7,171.6,48.7,252.3,48.6,252.3z"/>
	<path class="st1" d="M142.2,155.7v112.5h-16.1V155.7H142.2z"/>
	<path class="st1" d="M213.4,209.6h44.3v3.7c0,8.5-0.9,15.9-2.8,22.4c-1.8,6-5,11.7-9.4,16.9c-9.9,11.8-22.6,17.7-38,17.7
		c-14.9,0-27.8-5.7-38.5-17c-10.7-11.4-16-25.2-16-41.1c0-16.3,5.5-30.2,16.3-41.6c10.8-11.4,24.1-17.1,39.7-17.1
		c8.4,0,16.2,1.8,23.5,5.4c6.9,3.6,13.8,9.4,20.5,17.5l-11.6,11.6c-8.7-12.3-19.5-18.4-32.2-18.4c-11.3,0-20.9,4.1-28.5,12.3
		c-7.7,8.1-11.5,18.1-11.5,30.3c0,12.6,4.3,22.9,12.8,31c8,7.6,16.7,11.3,26.1,11.3c7.9,0,15.1-2.8,21.4-8.5
		c6.4-5.7,9.8-12.5,10.6-20.4h-26.7V209.6z"/>
	<path class="st1" d="M327.5,171.6h-42.9v27.1h41.7v15.9h-41.7v37.6h42.9v15.9h-59.1V155.7h59.1V171.6L327.5,171.6z"/>
	<path class="st1" d="M399.6,172.4l-13.1,8.1c-2.5-4.5-4.8-7.4-7-8.7c-2.3-1.5-5.3-2.4-8.9-2.4c-4.5,0-8.2,1.4-11.2,4
		c-2.9,2.6-4.5,5.9-4.5,9.9c0,5.5,3.9,9.9,11.7,13.3l10.7,4.6c8.7,3.7,15,8.2,19,13.5s6,11.8,6,19.6c0,10.4-3.3,18.9-9.8,25.6
		c-6.7,6.8-14.9,10.2-24.6,10.2c-9.3,0-17-2.9-23.1-8.7c-5.9-5.7-9.7-13.9-11.2-24.4l16.4-3.8c0.7,6.6,2,11.2,3.9,13.7
		c3.4,4.8,8.2,7.3,14.6,7.3c5,0,9.2-1.8,12.6-5.3c3.4-3.6,5-8,5-13.5c0-2.2-0.3-4.2-0.9-6c-0.6-1.8-1.5-3.5-2.7-5
		c-1.3-1.5-2.8-2.9-4.7-4.3c-1.9-1.4-4.3-2.6-6.9-3.8l-10.3-4.6c-14.7-6.5-22-16-22-28.5c0-8.5,3.1-15.5,9.2-21.2
		c6.2-5.7,13.9-8.6,23-8.6C383.1,153.5,392.6,159.8,399.6,172.4z"/>
	<path class="st1" d="M443.8,171.6v96.6h-16.1v-96.6h-24.6v-15.9h65.3v15.9H443.8z"/>
</g>
</svg>
